/* XPM */
static char *be07e3ee434042b9bcfd00e831a5f7d109sD7YzqPSHvTlhI[] = {
/* columns rows colors chars-per-pixel */
"32 32 215 2 ",
"   c None",
".  c #796400",
"X  c #715F26",
"o  c #7A662B",
"O  c #776428",
"+  c #7C6733",
"@  c #856B00",
"#  c #8B6D00",
"$  c #897600",
"%  c #967902",
"&  c #827919",
"*  c #A37D00",
"=  c #826D2C",
"-  c #8A742F",
";  c #897328",
":  c #977D27",
">  c #8C7632",
",  c #8E7838",
"<  c #947D3B",
"1  c #927A31",
"2  c #806A32",
"3  c #9D8100",
"4  c #938100",
"5  c #9A9215",
"6  c #AB8D00",
"7  c #A58904",
"8  c #B89A02",
"9  c #B09111",
"0  c #9B833B",
"q  c #9A8537",
"w  c #91852B",
"e  c #A98B23",
"r  c #A68C3B",
"t  c #A3893B",
"y  c #AD923D",
"u  c #B1953E",
"i  c #B69B3C",
"p  c #BAA335",
"a  c #C19C00",
"s  c #CBA400",
"d  c #C8A603",
"f  c #D2AD00",
"g  c #D2AE13",
"h  c #CAA829",
"j  c #CAAA36",
"k  c #D9B538",
"l  c #E8C131",
"z  c #F1C53A",
"x  c #F2C93F",
"c  c #8F8A49",
"v  c #A98D46",
"b  c #AC9346",
"n  c #B29642",
"m  c #B69942",
"M  c #BA9D42",
"N  c #B89B4C",
"B  c #A9995A",
"V  c #BEA043",
"C  c #BDA44B",
"Z  c #B8A25F",
"A  c #A69A65",
"S  c #A89A7A",
"D  c #AAA679",
"F  c #B8AA79",
"G  c #BBAC6E",
"H  c #C3A445",
"J  c #C7A846",
"K  c #CAAA46",
"L  c #C3A54B",
"P  c #CCAD4A",
"I  c #C7A74A",
"U  c #D3B24B",
"Y  c #D9B74D",
"T  c #DBB94E",
"R  c #CCAD56",
"E  c #D3B351",
"W  c #DDBB52",
"Q  c #D7B75D",
"!  c #CEB151",
"~  c #E1BE52",
"^  c #C3AF7A",
"/  c #C9B575",
"(  c #D4BB6B",
")  c #DFC04F",
"_  c #EAC443",
"`  c #E5C048",
"'  c #E5C253",
"]  c #EAC555",
"[  c #EDC955",
"{  c #ECCA5C",
"}  c #EAC65A",
"|  c #F1CC57",
" . c #F3CE5A",
".. c #F5CB56",
"X. c #F7D15B",
"o. c #FBD55B",
"O. c #FEDC5E",
"+. c #F6D95C",
"@. c #F1CF4C",
"#. c #FBE55F",
"$. c #E5C873",
"%. c #FEE562",
"&. c #FFEB64",
"*. c #FFF167",
"=. c #FFF268",
"-. c #0019F3",
";. c #3132F2",
":. c #5800F5",
">. c #6F3DF7",
",. c #2871F5",
"<. c #5056F4",
"1. c #7447F9",
"2. c #654DF7",
"3. c #5377F5",
"4. c #637FF6",
"5. c #DC00BA",
"6. c #E600B7",
"7. c #F408B9",
"8. c #DA38BF",
"9. c #ED32BD",
"0. c #BB00C8",
"q. c #BF00D0",
"w. c #CA00C3",
"e. c #C400C7",
"r. c #D701C4",
"t. c #C81CCB",
"y. c #C213D2",
"u. c #CB38CD",
"i. c #BD4FD4",
"p. c #8D5BF9",
"a. c #D548C8",
"s. c #D958CB",
"d. c #C44AD2",
"f. c #E557C5",
"g. c #EA4FC5",
"h. c #DA67D5",
"j. c #D679D5",
"k. c #CE70C8",
"l. c #E463C8",
"z. c #E878C6",
"x. c #F371C7",
"c. c #0091F2",
"v. c #2B8BF5",
"b. c #0BB4F1",
"n. c #39ADF3",
"m. c #4F8CF4",
"M. c #7A83F9",
"N. c #7998F7",
"B. c #52A8F1",
"V. c #6AA8F4",
"C. c #00D1F4",
"Z. c #00C0F5",
"A. c #00E4F4",
"S. c #45C2F5",
"D. c #76D9F6",
"F. c #69CDF0",
"G. c #44E1F2",
"H. c #61E1F1",
"J. c #B6AA94",
"K. c #BAAC9D",
"L. c #B6AA91",
"P. c #B291B8",
"I. c #B7ABA5",
"U. c #AAAAB7",
"Y. c #BBAFB3",
"T. c #C9B786",
"R. c #C7BB9A",
"E. c #D4BF80",
"W. c #C49AAD",
"Q. c #C6ADB3",
"!. c #D3B8BA",
"~. c #C8B9B4",
"^. c #B4CCB8",
"/. c #DCC589",
"(. c #D9C698",
"). c #E3CD98",
"_. c #E5CA87",
"`. c #CDC4AA",
"'. c #D8C9AB",
"]. c #D6C6B8",
"[. c #CDD0B3",
"{. c #E6D5B2",
"}. c #95BDDA",
"|. c #AFABCB",
" X c #8987E9",
".X c #8B99F6",
"XX c #9B93FA",
"oX c #A695F2",
"OX c #93B3F1",
"+X c #ADA5E6",
"@X c #B6B9E4",
"#X c #A9B1F2",
"$X c #D59BD8",
"%X c #D28DD0",
"&X c #E18ECE",
"*X c #CFA7C4",
"=X c #DBA6C9",
"-X c #C9B8C2",
";X c #D9A5DA",
":X c #DABCD7",
">X c #E0B9C5",
",X c #EFB1D9",
"<X c #D6B8E7",
"1X c #8DCFD8",
"2X c #AFD3D4",
"3X c #8BCEF2",
"4X c #A7CCE0",
"5X c #D9C7CA",
"6X c #C8C8C9",
"7X c #E3C5CE",
"8X c #E2C6D2",
"9X c #E4DACE",
"0X c #DBDAE7",
"qX c #CDC7F1",
"wX c #D3E2E6",
/* pixels */
"                            K P U T                             ",
"                    m V H U U T T ~ ' T ) [                     ",
"                y V J H H P P P P U U U ) [ ' +.                ",
"              n H m J T W W W T U P K J K Y T [ [               ",
"          0 V i H W [ ] ~ l U T P P J H V m J W ] O.#.          ",
"        < H u P | | } ` Q 9X$.h U K I L V m n m U ] O.#.        ",
"        M u U X.| ] } l 6XM.qX_.j I a p C p 6 e v U [ #.        ",
"      r u P o. .{ } l (..X;.oXE.d R '.8X7X7X].F 3 0 Y o.+.      ",
"    0 M V o.X.| { ` $.#X,. XR.s T.:Xj.r.r.5.l.,X`.% v ' O.#.    ",
"    y y [ o.X.[ [ _ 2Xm.4.6Xf ( ;Xe.w.s.%Xk.r.6.,X`.@ V X.O.    ",
"  0 u J o.X.| X.l '.V.,.@XQ j Q.y.t.Q.L.N A W.f.6.,XD # ] %.%.  ",
"  r y ' o.X. ._ _.3Xc.OX/ s / %Xe.*X^ 8 u e 5 W.7.x.!.. L O.#.  ",
"  y i  .o. .[ [ 2Xb.V.0X{.).`.i.u.!.8 N u b 7 S l.7.].o t o.%.  ",
"  n H o.X. .z 6XB.B.B.N.N.#XqXu.i.5X6 N y b e S z.7.>X; - ] &.  ",
"< m P o. .x ).D.Z.B.B.m.4.-.@Xk.e.8X8 b b b * L.f.9.!.$ 2 ~ *.&.",
"0 i U o. ...2XC.S.}.K.T.Y.p.OX$X0.;X[.6 7 3 F =X7.x.J.@ + Y *.%.",
"< M E +.x (.H.C.4XW g k f G  X<Xu.e.;X7X'.].;X9.6.=Xc ; O Y *.%.",
"< M P +.x [.A.H.'.g Q ! R d P.XX<Xt.w.u.h.f.6.6.z.L.@ , O ~ =.%.",
"  M L  .z ^.A.3X).k ! P R h K.>.XX:Xk.s.a.u.6.g.Q.$ > > = | =.  ",
"  n p { x ^.A.3X{.f Q ! R a Y.1.p.~.v S 5Xf.5.Q.c ; > o q o.%.  ",
"  y M W x R.G.C.wX~ d j a ( +X:.oX^ 7 F %X5.&XL.# , - X V &.O.  ",
"  0 H I _ Y 1XC.F.0X(./.'.@X2.1.|.6 A =Xr.l.I.$ , - - O [ =.O.  ",
"    n V ~ ~ / F.C.n.OX4XXX<.2.+XR 6 -Xa.r.Q.w , , > O n O.%.    ",
"    0 P K ~ Y ^ 1XB.v.,.3.4.|.G 7 K.j.w.$XA % , > = -  .*.O.    ",
"      n K P W k K L.U.|.U.L.i 6 F $Xe.j.J.$ < 1 > O W %.+.      ",
"        P J P E U h d g 8 9 n u B P.h.Q.4 0 1 - o U O.&.        ",
"        0 U P P ! P I C N m m n e q K.B : < = > T O.&.X.        ",
"          0 U U P P H V i M u y y t % : > 1 m | %.%.{           ",
"              L ~ T U K M m y r t 0 t r H ] o.%. .              ",
"                n ! ] ' ~ T U U P Y ' | o.%.X.}                 ",
"                    m P T | X.o.o.o.o. .] W                     ",
"                            L ! ! P                             "
};
