/* XPM */
static char *_5f7c9b908454dd89ea51bc62b908675LQaNJGJewWJQ2iR2[] = {
/* columns rows colors chars-per-pixel */
"64 64 243 2 ",
"   c None",
".  c #6D5D2A",
"X  c #7A6629",
"o  c #786734",
"O  c #886800",
"+  c #947400",
"@  c #9A7B01",
"#  c #907310",
"$  c #A47E00",
"%  c #836E2D",
"&  c #86712E",
"*  c #89742F",
"=  c #8E7425",
"-  c #8C7631",
";  c #8E7832",
":  c #8A7639",
">  c #937C33",
",  c #937D3B",
"<  c #987F33",
"1  c #8F772B",
"2  c #947F42",
"3  c #9E800A",
"4  c #A88603",
"5  c #B99501",
"6  c #AD8C11",
"7  c #9B8336",
"8  c #9B843B",
"9  c #968139",
"0  c #9C812D",
"q  c #A98C28",
"w  c #B59627",
"e  c #A58B3A",
"r  c #A98E3B",
"t  c #A58A34",
"y  c #AD923D",
"u  c #B2963E",
"i  c #B4983F",
"p  c #B69937",
"a  c #AF912C",
"s  c #BFA03D",
"d  c #C39E00",
"f  c #C8A403",
"g  c #CFA90E",
"h  c #C19F32",
"j  c #C9A62A",
"k  c #D6B227",
"l  c #C8A735",
"z  c #DAB639",
"x  c #D1AE37",
"c  c #E2BC3B",
"v  c #E8C23B",
"b  c #9A8745",
"n  c #928A55",
"m  c #A68D42",
"M  c #AD9343",
"N  c #AD954A",
"B  c #B19642",
"V  c #B69941",
"C  c #BA9D42",
"Z  c #BA9E4A",
"A  c #B49A4B",
"S  c #AE9956",
"D  c #BEA144",
"F  c #BDA14A",
"G  c #B4A052",
"H  c #9A956E",
"J  c #A69E70",
"K  c #B8A977",
"L  c #ADA173",
"P  c #C3A545",
"I  c #C7A847",
"U  c #C9A946",
"Y  c #C3A64B",
"T  c #CCAD49",
"R  c #C7A849",
"E  c #D0AF48",
"W  c #D3B34C",
"Q  c #D9B74D",
"!  c #DBB94E",
"~  c #D3B246",
"^  c #C9AC54",
"/  c #CEB055",
"(  c #D4B452",
")  c #DDBB52",
"_  c #D8B856",
"`  c #CFB04A",
"'  c #E1BE51",
"]  c #E2BF5C",
"[  c #E1BE4D",
"{  c #CDB46F",
"}  c #E0BD63",
"|  c #EAC548",
" . c #E6C253",
".. c #EAC554",
"X. c #EDC955",
"o. c #EBC759",
"O. c #F1CC57",
"+. c #F3CE59",
"@. c #F8CF59",
"#. c #F6D159",
"$. c #FBD45B",
"%. c #FFDB5E",
"&. c #F4D558",
"*. c #EFD051",
"=. c #FBE25C",
"-. c #FFDF60",
";. c #FFE361",
":. c #FFEB64",
">. c #FFF365",
",. c #FFFA68",
"<. c #DFC057",
"1. c #6A0BF2",
"2. c #6C2FF3",
"3. c #4F1CF2",
"4. c #3675F0",
"5. c #5256F1",
"6. c #7644F3",
"7. c #6858F2",
"8. c #7A55F4",
"9. c #6B48F3",
"0. c #5769F1",
"q. c #4F72F2",
"w. c #6867F1",
"e. c #6777F2",
"r. c #766EF3",
"t. c #3A2DEF",
"y. c #CC00BD",
"u. c #D400BC",
"i. c #DB00B9",
"p. c #DD19BC",
"a. c #EB00AD",
"s. c #E400B4",
"d. c #EA00B3",
"f. c #E405B8",
"g. c #EC11B7",
"h. c #DD29BE",
"j. c #DF35BF",
"k. c #E529BA",
"l. c #E939BA",
"z. c #ED42BC",
"x. c #BA00CB",
"c. c #BD00C7",
"v. c #BC1DCE",
"b. c #BD29CE",
"n. c #812DF6",
"m. c #C300C4",
"M. c #CC00C3",
"N. c #C706C7",
"B. c #D601C2",
"V. c #CA1BC8",
"C. c #C52ACA",
"Z. c #C838CB",
"A. c #D43AC4",
"S. c #D425C1",
"D. c #885FF8",
"F. c #D846C6",
"G. c #CD51CF",
"H. c #E64BC3",
"J. c #D76FD2",
"K. c #EA72C9",
"L. c #F06AC5",
"P. c #3490F0",
"I. c #07B2EE",
"U. c #35B2F0",
"Y. c #0D90EE",
"T. c #5A96F1",
"R. c #4B8FF0",
"E. c #6688F2",
"W. c #768FF5",
"Q. c #4CA6F1",
"!. c #47B9F1",
"~. c #4CACF0",
"^. c #73ABF5",
"/. c #00C9EE",
"(. c #00D5EE",
"). c #0DCEEF",
"_. c #33D3EF",
"`. c #00E9F1",
"'. c #12EBF2",
"]. c #27E7F4",
"[. c #42C9F0",
"{. c #43D3F0",
"}. c #74D6F5",
"|. c #5AE9F4",
" X c #A6A588",
".X c #B4A984",
"XX c #AAA895",
"oX c #B7B397",
"OX c #B8B7A9",
"+X c #BAB9B6",
"@X c #B1AFB1",
"#X c #C7BB96",
"$X c #CFBA89",
"%X c #C4BBB2",
"&X c #BCC2B3",
"*X c #D6C494",
"=X c #E5CE93",
"-X c #C6C2AA",
";X c #D6CAAA",
":X c #C6C9B8",
">X c #D5CBB5",
",X c #DAD4BB",
"<X c #EBDBB8",
"1X c #EBD9AE",
"2X c #B4B7CD",
"3X c #9194F6",
"4X c #A38FF9",
"5X c #91AEF1",
"6X c #A8A6F3",
"7X c #B0B3F0",
"8X c #D78AD7",
"9X c #D598DB",
"0X c #E789CE",
"qX c #E98FD2",
"wX c #D1ACD1",
"eX c #EFADDB",
"rX c #D7BAE8",
"tX c #E8B0E4",
"yX c #ADCCD8",
"uX c #92CDF3",
"iX c #B1D0F3",
"pX c #94E4F0",
"aX c #A5E4F4",
"sX c #D6D4CA",
"dX c #D7D4D7",
"fX c #CECCCE",
"gX c #E4D0DA",
"hX c #ECE7D0",
"jX c #D5D8E3",
"kX c #D6D7F9",
"lX c #CAD0EF",
"zX c #E6C9E7",
"xX c #E8D8E7",
"cX c #F3D4ED",
"vX c #D1E6FA",
"bX c #EBE7EA",
"nX c #F2ECE9",
"mX c #F5F3EB",
"MX c #EBE6F4",
"NX c #F6E7F2",
"BX c #FAF8F9",
"VX c #EDF3F7",
"CX c #DFE3D7",
/* pixels */
"                                                                                                                                ",
"                                                  C P P U R W W W W Q !  .| X.                                                  ",
"                                            V C U W W R T U U U T T T W ! [ ....X.*.                                            ",
"                                      r V I R P D P P P P U U T T T ` T ` W W ~ W  .#.*.=.                                      ",
"                                  8 V I P C D P P D P P P I R R T T T ` W W W ~ W Q W [ &.&.=.                                  ",
"                                y P C C C P C C D I T T W W W W W ` W ` T W W ( Q Q ! ) ! ! &.&.                                ",
"                            8 P C C C C i C P E ! ) '  .! ! ! Q W W ` T T U I T ` Q ! ! ! ' ) ' =.=.                            ",
"                          e D V V C C V U !  ... . .) ! ! ! W W W T ` T R I P P D P T W ' ' )  .' @.=.                          ",
"                      : i V V i V V P ) X.X... . .' )  .! Q W W W ` T T I I P P Z C V C P Q  .[  . ...=.,.                      ",
"                    : V i i V i V Q O.O..... . . . .z c _ Q Q W ` E T U I I P P P C C V i i R  . . ...' =.>.                    ",
"                  : V i i V i D ..@.X.X.X... . .' z <X=Xf ) W W W ` T U I I P D P C C V i i y i [ .. .....:.,.                  ",
"                o C i i V y U O.@.O.X.X..... .] c $XkXBX<Xg ~ W T T R U I P P P C P i i i i i y y Q X. .X...:.,.                ",
"                y i i V y ` $.@.O.O.X..... ...[ _ dXW.r.VXhX( ~ ` T U I P I Y F P Z Z Z A B y y r e W X...X.X.:.                ",
"              8 B y i y ` $.#.O.O.O.X....... .[ sX7X5.7.5.kXnXE T T P I Y h 5 5 5 5 4 4 4 u N y r r e W O...O.X.:.              ",
"            : V i i y I $.#.@.O.O.X..... .o.c *XlXq.e.e.2.7X>Xx T T ^ j 5 { ;XhXCXhXCX<X$Xi $ y M e e 7 ! O.X.O.%.>.            ",
"            i i y y D $.$.#.#.O.O.O.X. ...[ { jXE.0.w.5.4XfXl E T T d $XhXNXcXrXtXqXtXcXNXmX,Xt 4 M e 7 e ..O.X.O.:.            ",
"          9 B y u i X.$.$.@.#.O.X.X... ...! sX5X4.e.0.r.dX{ ~ ^ T l ,XnXtXG.M.y.y.y.i.i.i.0XcXnX.X$ m e > B O.O.@.@.:.          ",
"        % C i B r ! %.$.#.O.O.O.X.X.....c ;XiX4.E.q.5.lX#Xj / T l sXzXZ.m.N.A.F.F.j.F.A.S.s.s.eXBX-X+ b t ; T @.O.@.;.,.        ",
"        , i y y C $.$.#.#.#.O.O.X...o.| $XlXT.E.E.q.6X>Xl W ` h sXrXm.N.Z.Z.N.M.u.B.f.i.p.l.l.i.K.BX#X+ m , < ..#.#.@.:.        ",
"      o V i i r  .%.$.$.@.O.X.X.X.o..._ gX^.P.E.q.W.jX^ ~ / j ;XrXm.C.Z.N.y.J.wXwXwXwX8XH.f.j.l.d.K.BX.X+ e * Z #.#.@.:.,.      ",
"      > V y y P $.$.$.#.@.O.O.X.o.o.c ,XiXP.T.R.q.lX*Xx / l { lXC.V.Z.m.Z.wXwXL S S H  X+X0Xi.k.z.a.eXnX< < < >  .$.$.$.:.      ",
"      B i i r ' %.$.$.@.O.O.O...o.v *XlXP.Q.T.4.7X;Xk ` / j fX8Xx.Z.N.Z.gXoX6 w p a r 4 9 @XqXs.k.l.a.NX;XO b & P $.$.@.>.      ",
"    & V u y V $.$.$.@.@.O.O.O.X.| } jX^.P.T.4.5XsXT W / x { wXv.b.C.N.rXoX5 Z V i i M N y 3 OXK.s.z.a.qXnX= < > < O.$.$.;.,.    ",
"    , u u r W %.$.$.#.@.O.O.O.@. .dXuXI.~.R.T.lX{ x ( / x oX7Xx.b.x.8XsXw F V i i u y r m q n wXg.k.k.g.NX.XO 7 % Q %.$.$.:.    ",
"    r B u r ..%.$.#.@.O.O.X.o.v ;XiXI.~.~.P.kX,X~ _ k g f &X8Xx.G.x.zX*X5 A i V B y y r r m 3 @XL.a.l.a.cX%XO 2 % V $.$.$.:.    ",
"  o B i u V @.$.$.@.#.O.O.O.| $XjX[.U.~.P.5XBXmXmXmXnX<X/ wXG.x.b.V.xXK w A i i i y y r r r 4  XqXa.l.a.eX:XO 2 & 7 $.$.$.:.,.  ",
"  & V i y P $.$.#.#.O.O.X.X.] CXuXI.~.~.Q.T.3XW.W.W.7XkXBXMXb.v.v.Z.MXK w A i i i y y r r m @  XeXa.z.a.eXsXO : - & X.%.$.:.,.  ",
"  : V i r W %.@.#.@.#.O.O.| ,XaX/.!.U.~.Q.R.P.R.q.q.5.t.5XvXb.b.b.V.MX{ w C i i y y r r e m 3 XXqXa.l.a.eX>XO 2 - X Q %.$.;.:.  ",
"  , V u y [ %.$.#.#.O.O.| *XiX)._.!.!.Q.Q.R.R.q.E.e.e.w.r.xXG.x.b.x.cX*X4 A i i y y r r e m 3 +X0Xa.l.a.zX#XO : - X R %.$.-.:.  ",
"  8 u i r  .$.$.#.O.O.O.o.dX}.).U.!.!.P.Q.^.^.^.E.q.0.w.7.MXJ.x.G.x.tXbX5 A B y y y r r r q b wXz.g.l.d.xXJ O : - X D %.-.$.:.  ",
"  8 i u y ..$.#.#.O.+.| ;XpX(.[.[.U.U.uX2X+X@XOX2X7XW.5.9.lXwXx.b.b.C.BX*X4 A B y y m M m + >XeXa.l.a.L.dX; * ; - X V %.-.$.:.  ",
"  8 i u i ..$.#.O.+.O.} jX{.].[._.!.iX%X^ l x j h J @X4X3.4XcXx.b.Z.x.8XBX#X$ 6 r t q @ + :XcXd.k.l.a.eX+XO , * & X y -.$.%.:.  ",
"  e i i B ..$.O.@.+.| *XaX`.{._._.lX#Xk ! ! ( ( ( x w @X3X2.MX8Xx.Z.Z.m.8XBXhXK N M S oXCXzXk.g.k.g.z.gXn = - * * X y %.%.%.:.  ",
"  8 i i i  .$.@.O.@.| fX|.).{./.iX>Xk ) ( W W ` T / T p 2X9.6XcXx.b.C.Z.M.G.cXNXnXbXnXNXeXs.p.k.l.a.eX&XO : * & & X i %.%.%.:.  ",
"  8 V i y ' $.O.+.O.o.aX]._._.{.jX{ ! Q W W W ` T R ^ h .X6X3.kXxXm.C.C.Z.M.y.A.J.K.J.u.i.h.k.k.s.L.dX2 = : * & & X i %.%.%.:.  ",
"  > C V y ! $.O.+.| { aX`.{./.pXhXz ! Q Q W ` ` T T R I S 2X6.2.kXgXN.N.C.Z.Z.S.u.u.i.h.j.k.k.k.s.zX XO , * * & * . U =.%.-.:.  ",
"  : Z V u E @.O.+.| $XpX`.{.`.aX<Xk Q W W W ` ` T T R U s 2XD.2.2.kXxXJ.B.y.m.y.i.u.p.h.h.h.l.s.eX+XO , ; * & & * . ! -.%.;.:.  ",
"  % P V u I @.O.o.| $XpX`.{.(.aX<Xk ) Q W W T T R U I I D 2X8.6.2.n.bX+XwX8XJ.J.J.J.F.p.h.l.i.K.sX, * ; * * & & % X o.-.%.:.:.  ",
"  . V i i C o.O.O.| { pX`.{.(.aXhXk ( W W ` W T R U Y P F 2X8.2.n.D.xXq n  XXX@X+XVX0Xu.j.p.k.gXH O , - * * & & X > $.-.-.:.:.  ",
"    y C C V ' @.o.../ pX'._.(.}.mX) W W W ` T T R I R h { 7X2.8.n.D.gXa p 6 < + oXtXu.h.j.s.rXOXO b ; - * * & & X i -.%.%.>.    ",
"    2 Z i i W O...o.W yX|._._./.VX<Xf _ ` ` T U R R R w sX4X2.6.1.rX%X4 N M q L jXA.B.A.i.qXfX= > ; * - = & % % . Q ;.%.=.;.    ",
"    % P C C P ..X.o.c oX}.(.{./.}.BX=Xf W / / / T P 5 ;XiX2.8.6.n.rXK q y r t sX0XB.A.i.H.dXn 3 , ; ; - & & % % * &.%.%.:.;.    ",
"      V C C V Q o.....^ yX'._.{.I.uXBX1Xj f f 5 5 Y sXkX7.9.8.1.4XsXq B M 3 &XtXu.A.h.f.tXXXO 2 ; ; - & & % % . P =.%.%.>.      ",
"      , P C C I o.' o.z oXpX(.{.[.I.uXVXnX<X1X1XhXbXlXw.7.8.9.2.lXK q N 4 .XxXB.S.A.u.eX:X+ < > ; ; - * & & % % X.%.%.;.;.      ",
"      o P D C C ! ..'  .U @X}./.!.!.I.U.uXiXvXkXiX3X5.7.r.7.3.rX#X6 N r N dXJ.y.A.u.J.dX2 1 > ; ; - & & % & . p -.-.-.>.-.      ",
"        8 P D D I '  .' ' F yX}./.!.~.Q.P.Y.Y.4.4.q.0.w.9.2.7X-Xq M B 4 sX9Xy.A.V.S.jXJ + 8 > > 1 - - & & % % @.-.-.-.;.        ",
"        o P P P Z W ' ' ' [ G @XuXU.U.U.T.T.E.E.E.e.5.5.r.7X%Xq u B $ oXzXM.C.A.i.tXOX+ 8 > ; ; - - * & * . T -.$.-.>.&.        ",
"          8 P C P P ) ' ! ! ) h XXyXuX~.P.P.P.R.q.q.r.6XfXoXq V B q L gXG.M.A.y.0XfX= 7 > > ; ; * * & * . e -.-.$.-.%.          ",
"            D P P P U ) ! ! W ) l G XX2X5X5X5X5X6X2X2XoXN w V B y q fX9XN.A.M.F.dXH # 7 > > ; ; - * * % * O.-.-.$.>.            ",
"            : R I P P T ! ! W W ( W j h G K .X.XL A p w V V V B 6 -XrXc.Z.C.M.zXoX+ b > > > ; - & * % X ' -.-.$.;.-.            ",
"              8 R P P I T ) W W W T T W E l l h h s C C V V i B q XXwXG.M.M.9X:X+ 7 7 > > ; ; * - % X ' -.-.-.-.-.              ",
"                V T I R I ` Q W W T T R U I P Z F Z C V u V y y M @ H wXG.J.dXb < < > > > * - ; % % ! %.$.-.-.;.                ",
"                . Y T Y R T ` W W T T U R P P D D C C V i i i y r M q b @XzXL @ 8 < , > > ; ; X ;  .%.$.%.%.>. .                ",
"                  . T T U T T T ` T U U P P P D D C C i i i y y r r r 0 9 H 7 7 8 < > > > - X y O.%.$.%.%.:. .                  ",
"                    o Y ` T T T ` T R U P P P D C C V V i y y y y e e 8 e = 8 7 < < < > % ; W $.$.$.%.%.:.<.                    ",
"                      . D W ` ` W W W T P P D D D C V i y i y y y e e e 8 e 7 7 7 > & * D X.$.$.$.%.%.-._                       ",
"                          m _ ( ` W W W W T P C V V V V i u y y e r t e 7 7 7 ; ; 7 P ..$.$.$.$.-.;.o.                          ",
"                            , ( ! W W W ! ! W ` U V i u r r r r e 7 7 7 7 7 e C Q o.$.$.#.$.$.-.;.)                             ",
"                                N ! ! ) W ! ! ) ' ! Q ` U P P i D D D T W ' X.#.#.#.O.@.$.$.;. .                                ",
"                                  : B ' [ ) ! ! ! ' [  . .........X.X.O.O.O.O.O.O.#.$.-.-. ./                                   ",
"                                      : B (  . .' ' ' '  . . . . .o.....X.O.@.#.$.%.$.) ^                                       ",
"                                            m Z W ..o.O.X.X...X.X.O.O.$.$.%.$.o.Q ^                                             ",
"                                                  2 M Z Y ^ ` ) ) ( ( ` ^ Y A                                                   ",
"                                                                                                                                "
};
