/* XPM */
static char *_95ef9da97c6414aee2c0abe31a2141fYGIQnzuJEWU5IJRn[] = {
/* columns rows colors chars-per-pixel */
"16 16 193 2 ",
"   c None",
".  c #6B5700",
"X  c #776107",
"o  c #745A29",
"O  c #75752E",
"+  c #7A6233",
"@  c #877A00",
"#  c #8B751C",
"$  c #977F36",
"%  c #958B1B",
"&  c #A98701",
"*  c #A29800",
"=  c #B39B00",
"-  c #B79919",
";  c #B6A000",
":  c #B8A71E",
">  c #9D853A",
",  c #AB9323",
"<  c #A0873B",
"1  c #A1873D",
"2  c #A58A3A",
"3  c #A98D39",
"4  c #B2973E",
"5  c #BDA22F",
"6  c #CCAE00",
"7  c #C7A50A",
"8  c #CFB501",
"9  c #DFB600",
"0  c #CCA61C",
"q  c #C0A321",
"w  c #C2A529",
"e  c #C2A12D",
"r  c #D6B92F",
"t  c #CCAA3E",
"y  c #DBB532",
"u  c #E4BC37",
"i  c #E0BC3D",
"p  c #EDC02F",
"a  c #F4CA2F",
"s  c #EFC932",
"d  c #9B8646",
"f  c #9E864A",
"g  c #98875F",
"h  c #A08942",
"j  c #AF9340",
"k  c #A99C42",
"l  c #B29947",
"z  c #A09152",
"x  c #A19352",
"c  c #BDA145",
"v  c #BDA04D",
"b  c #A4946D",
"n  c #A2857C",
"m  c #A59675",
"M  c #B7A666",
"N  c #B8A664",
"B  c #B9A77B",
"V  c #C4A545",
"C  c #C7A544",
"Z  c #C7A846",
"A  c #CEAE43",
"S  c #C2A348",
"D  c #C8A94C",
"F  c #CAAC4F",
"G  c #D0AF49",
"H  c #D5B242",
"J  c #D8B541",
"K  c #DBB843",
"L  c #DDBA42",
"P  c #D1B049",
"I  c #D0B04C",
"U  c #D2B34F",
"Y  c #D8B64F",
"T  c #DABA4D",
"R  c #C6AB52",
"E  c #D5B451",
"W  c #DAB851",
"Q  c #D8B954",
"!  c #DBB954",
"~  c #DBB955",
"^  c #DCBC54",
"/  c #E0BD52",
"(  c #E1BF59",
")  c #C8AC62",
"_  c #CFB869",
"`  c #DBBB67",
"'  c #C1B278",
"]  c #D3BD72",
"[  c #DABE70",
"{  c #EBC545",
"}  c #F2C840",
"|  c #F5CF46",
" . c #FED44B",
".. c #FCD04C",
"X. c #E6C356",
"o. c #E6C357",
"O. c #E7C657",
"+. c #EEC955",
"@. c #E5C159",
"#. c #E5C55E",
"$. c #E9C659",
"%. c #EFCA58",
"&. c #EECA5B",
"*. c #F4CD50",
"=. c #F0CB5A",
"-. c #F5CF5B",
";. c #FAD35B",
":. c #F9D35F",
">. c #FAD45D",
",. c #F5DB5C",
"<. c #FCD95C",
"1. c #FFD95D",
"2. c #FDD95E",
"3. c #FCD95F",
"4. c #E1C569",
"5. c #FDD762",
"6. c #FFDF60",
"7. c #E2C272",
"8. c #E7CC7E",
"9. c #FFE461",
"0. c #FFE662",
"q. c #FFE663",
"w. c #FFE567",
"e. c #FFE962",
"r. c #FFE668",
"t. c #C66D99",
"y. c #C97EB4",
"u. c #846CFD",
"i. c #D858C8",
"p. c #C551DA",
"a. c #E155C2",
"s. c #E755C5",
"d. c #D765C7",
"f. c #D366CD",
"g. c #D27DC9",
"h. c #D77ACE",
"j. c #D17CCE",
"k. c #CD69DB",
"l. c #D261D6",
"z. c #DE6BD1",
"x. c #F267C6",
"c. c #F069C3",
"v. c #F378CC",
"b. c #ED7DD0",
"n. c #7688E8",
"m. c #788AF0",
"M. c #7986FA",
"N. c #58B9EF",
"B. c #4ABDF2",
"V. c #5BB8F0",
"C. c #6EA4F7",
"Z. c #7AAAF7",
"A. c #4FD4F0",
"S. c #47DAF6",
"D. c #61E1F7",
"F. c #B49E84",
"G. c #BF9A84",
"H. c #BD978F",
"J. c #B68993",
"K. c #B88F92",
"L. c #BC909E",
"P. c #A9A096",
"I. c #BFBD98",
"U. c #A896A5",
"Y. c #C18898",
"T. c #CDA18E",
"R. c #CEB094",
"E. c #DB80B4",
"W. c #CF98BB",
"Q. c #D59ABC",
"!. c #C4A1A1",
"~. c #D3AAA2",
"^. c #C1B2A2",
"/. c #CFD09C",
"(. c #E5C881",
"). c #E2D189",
"_. c #C8C1A0",
"`. c #CDC3AA",
"'. c #9C8BC9",
"]. c #9C86D5",
"[. c #AB9CDD",
"{. c #9EA3C2",
"}. c #A7ADD4",
"|. c #9299F2",
" X c #B785EB",
".X c #AE91E5",
"XX c #82ADF6",
"oX c #CA8CC2",
"OX c #C688D1",
"+X c #C2B2C0",
"@X c #C2BFD1",
"#X c #97D0D9",
"$X c #B5D0D8",
/* pixels */
"            v D G T             ",
"        4 E i L W ! @.O.        ",
"    > Z o.{ (.[ t q = e >.,.    ",
"    V =.*.#.|.+X8 R.~.B , 1.    ",
"  2 +.:.s }.m._ W.l.d.b.!.5 1.  ",
"  P 5.a `.C.] T.p.G.k t.v.m |   ",
"$ $. .8.V.Z.@XOXoX: & x c.J.r r.",
"< %...#XB.{.n. Xg.' * H.x.n w r.",
"d } ).S._.9 R [.k.h.Q.s.y.O A 9.",
"d p /.D.7.0 6 ]..XY.i.a.b . ^ q.",
"  J 4.A.$X` ^.u.U.M z.K.@ + 2.  ",
"  l u I.V.XXM.'.N f.y.% o c 6.  ",
"    U y ) P.F.; L.j.x X 1 9.    ",
"    j ! J 7 - 3 f g # S 9.1.    ",
"        F ( ^ P A K -.>.        ",
"            Y ^ o.&.            "
};
